<svg xmlns="http://www.w3.org/2000/svg" width="1000" height="1420" viewBox="0 0 1000 1420">
<rect width="100%" height="100%" fill="#FFFFFF"/>
<text x="500.0" y="25" text-anchor="middle" font-family="Microsoft YaHei" font-size="18" font-weight="bold" fill="#1B5E8C">产业链多级结构图</text>
<path d="M118,710.0 C179.0,710.0 179.0,101.0 240,101.0" fill="none" stroke="#7CB8E4" stroke-width="2"/>
<path d="M118,710.0 C179.0,710.0 179.0,206.0 240,206.0" fill="none" stroke="#7CB8E4" stroke-width="2"/>
<path d="M118,710.0 C179.0,710.0 179.0,437.0 240,437.0" fill="none" stroke="#7CB8E4" stroke-width="2"/>
<path d="M118,710.0 C179.0,710.0 179.0,773.0 240,773.0" fill="none" stroke="#7CB8E4" stroke-width="2"/>
<path d="M118,710.0 C179.0,710.0 179.0,1025.0 240,1025.0" fill="none" stroke="#7CB8E4" stroke-width="2"/>
<path d="M118,710.0 C179.0,710.0 179.0,1193.0 240,1193.0" fill="none" stroke="#7CB8E4" stroke-width="2"/>
<path d="M118,710.0 C179.0,710.0 179.0,1319.0 240,1319.0" fill="none" stroke="#7CB8E4" stroke-width="2"/>
<path d="M284,101.0 C352.0,101.0 352.0,59.0 420,59.0" fill="none" stroke="#7CB8E4" stroke-width="2"/>
<path d="M284,101.0 C352.0,101.0 352.0,101.0 420,101.0" fill="none" stroke="#7CB8E4" stroke-width="2"/>
<path d="M284,101.0 C352.0,101.0 352.0,143.0 420,143.0" fill="none" stroke="#7CB8E4" stroke-width="2"/>
<path d="M284,206.0 C352.0,206.0 352.0,185.0 420,185.0" fill="none" stroke="#7CB8E4" stroke-width="2"/>
<path d="M284,206.0 C352.0,206.0 352.0,227.0 420,227.0" fill="none" stroke="#7CB8E4" stroke-width="2"/>
<path d="M312,437.0 C366.0,437.0 366.0,269.0 420,269.0" fill="none" stroke="#7CB8E4" stroke-width="2"/>
<path d="M312,437.0 C366.0,437.0 366.0,311.0 420,311.0" fill="none" stroke="#7CB8E4" stroke-width="2"/>
<path d="M312,437.0 C366.0,437.0 366.0,353.0 420,353.0" fill="none" stroke="#7CB8E4" stroke-width="2"/>
<path d="M312,437.0 C366.0,437.0 366.0,395.0 420,395.0" fill="none" stroke="#7CB8E4" stroke-width="2"/>
<path d="M312,437.0 C366.0,437.0 366.0,437.0 420,437.0" fill="none" stroke="#7CB8E4" stroke-width="2"/>
<path d="M312,437.0 C366.0,437.0 366.0,479.0 420,479.0" fill="none" stroke="#7CB8E4" stroke-width="2"/>
<path d="M312,437.0 C366.0,437.0 366.0,521.0 420,521.0" fill="none" stroke="#7CB8E4" stroke-width="2"/>
<path d="M312,437.0 C366.0,437.0 366.0,563.0 420,563.0" fill="none" stroke="#7CB8E4" stroke-width="2"/>
<path d="M312,437.0 C366.0,437.0 366.0,605.0 420,605.0" fill="none" stroke="#7CB8E4" stroke-width="2"/>
<path d="M478,269.0 C539.0,269.0 539.0,269.0 600,269.0" fill="none" stroke="#7CB8E4" stroke-width="2"/>
<path d="M291,773.0 C355.5,773.0 355.5,647.0 420,647.0" fill="none" stroke="#7CB8E4" stroke-width="2"/>
<path d="M291,773.0 C355.5,773.0 355.5,689.0 420,689.0" fill="none" stroke="#7CB8E4" stroke-width="2"/>
<path d="M291,773.0 C355.5,773.0 355.5,731.0 420,731.0" fill="none" stroke="#7CB8E4" stroke-width="2"/>
<path d="M291,773.0 C355.5,773.0 355.5,773.0 420,773.0" fill="none" stroke="#7CB8E4" stroke-width="2"/>
<path d="M291,773.0 C355.5,773.0 355.5,815.0 420,815.0" fill="none" stroke="#7CB8E4" stroke-width="2"/>
<path d="M291,773.0 C355.5,773.0 355.5,857.0 420,857.0" fill="none" stroke="#7CB8E4" stroke-width="2"/>
<path d="M291,773.0 C355.5,773.0 355.5,899.0 420,899.0" fill="none" stroke="#7CB8E4" stroke-width="2"/>
<path d="M305,1025.0 C362.5,1025.0 362.5,941.0 420,941.0" fill="none" stroke="#7CB8E4" stroke-width="2"/>
<path d="M305,1025.0 C362.5,1025.0 362.5,983.0 420,983.0" fill="none" stroke="#7CB8E4" stroke-width="2"/>
<path d="M305,1025.0 C362.5,1025.0 362.5,1025.0 420,1025.0" fill="none" stroke="#7CB8E4" stroke-width="2"/>
<path d="M305,1025.0 C362.5,1025.0 362.5,1067.0 420,1067.0" fill="none" stroke="#7CB8E4" stroke-width="2"/>
<path d="M305,1025.0 C362.5,1025.0 362.5,1109.0 420,1109.0" fill="none" stroke="#7CB8E4" stroke-width="2"/>
<path d="M485,1067.0 C542.5,1067.0 542.5,1067.0 600,1067.0" fill="none" stroke="#7CB8E4" stroke-width="2"/>
<path d="M291,1193.0 C355.5,1193.0 355.5,1151.0 420,1151.0" fill="none" stroke="#7CB8E4" stroke-width="2"/>
<path d="M291,1193.0 C355.5,1193.0 355.5,1193.0 420,1193.0" fill="none" stroke="#7CB8E4" stroke-width="2"/>
<path d="M291,1193.0 C355.5,1193.0 355.5,1235.0 420,1235.0" fill="none" stroke="#7CB8E4" stroke-width="2"/>
<path d="M471,1193.0 C535.5,1193.0 535.5,1193.0 600,1193.0" fill="none" stroke="#7CB8E4" stroke-width="2"/>
<path d="M291,1319.0 C355.5,1319.0 355.5,1277.0 420,1277.0" fill="none" stroke="#7CB8E4" stroke-width="2"/>
<path d="M291,1319.0 C355.5,1319.0 355.5,1319.0 420,1319.0" fill="none" stroke="#7CB8E4" stroke-width="2"/>
<path d="M291,1319.0 C355.5,1319.0 355.5,1361.0 420,1361.0" fill="none" stroke="#7CB8E4" stroke-width="2"/>
<rect x="60" y="695.0" width="89.6" height="30" rx="8" ry="8" fill="#1B5E8C" stroke="#2E6DAB" stroke-width="1"/>
<text x="104.8" y="715.0" text-anchor="middle" font-family="Microsoft YaHei" font-size="16" fill="#FFFFFF">半导体产业链</text>
<rect x="240" y="86.0" width="65.6" height="30" rx="8" ry="8" fill="#3B82C4" stroke="#2E6DAB" stroke-width="1"/>
<text x="272.8" y="106.0" text-anchor="middle" font-family="Microsoft YaHei" font-size="14" fill="#FFFFFF">晶圆制造</text>
<rect x="240" y="191.0" width="65.6" height="30" rx="8" ry="8" fill="#3B82C4" stroke="#2E6DAB" stroke-width="1"/>
<text x="272.8" y="211.0" text-anchor="middle" font-family="Microsoft YaHei" font-size="14" fill="#FFFFFF">计算芯片</text>
<rect x="240" y="422.0" width="99.2" height="30" rx="8" ry="8" fill="#3B82C4" stroke="#2E6DAB" stroke-width="1"/>
<text x="289.6" y="442.0" text-anchor="middle" font-family="Microsoft YaHei" font-size="14" fill="#FFFFFF">半导体产品与应用</text>
<rect x="240" y="758.0" width="74.0" height="30" rx="8" ry="8" fill="#3B82C4" stroke="#2E6DAB" stroke-width="1"/>
<text x="277.0" y="778.0" text-anchor="middle" font-family="Microsoft YaHei" font-size="14" fill="#FFFFFF">半导体材料</text>
<rect x="240" y="1010.0" width="90.8" height="30" rx="8" ry="8" fill="#3B82C4" stroke="#2E6DAB" stroke-width="1"/>
<text x="285.4" y="1030.0" text-anchor="middle" font-family="Microsoft YaHei" font-size="14" fill="#FFFFFF">半导体核心环节</text>
<rect x="240" y="1178.0" width="74.0" height="30" rx="8" ry="8" fill="#3B82C4" stroke="#2E6DAB" stroke-width="1"/>
<text x="277.0" y="1198.0" text-anchor="middle" font-family="Microsoft YaHei" font-size="14" fill="#FFFFFF">半导体技术</text>
<rect x="240" y="1304.0" width="74.0" height="30" rx="8" ry="8" fill="#3B82C4" stroke="#2E6DAB" stroke-width="1"/>
<text x="277.0" y="1324.0" text-anchor="middle" font-family="Microsoft YaHei" font-size="14" fill="#FFFFFF">半导体设备</text>
<rect x="420" y="44.0" width="46.4" height="30" rx="8" ry="8" fill="#4A90D9" stroke="#2E6DAB" stroke-width="1"/>
<text x="443.2" y="64.0" text-anchor="middle" font-family="Microsoft YaHei" font-size="12" fill="#FFFFFF">光刻</text>
<rect x="420" y="86.0" width="46.4" height="30" rx="8" ry="8" fill="#4A90D9" stroke="#2E6DAB" stroke-width="1"/>
<text x="443.2" y="106.0" text-anchor="middle" font-family="Microsoft YaHei" font-size="12" fill="#FFFFFF">沉积</text>
<rect x="420" y="128.0" width="60.8" height="30" rx="8" ry="8" fill="#4A90D9" stroke="#2E6DAB" stroke-width="1"/>
<text x="450.4" y="148.0" text-anchor="middle" font-family="Microsoft YaHei" font-size="12" fill="#FFFFFF">离子注入</text>
<rect x="420" y="170.0" width="60.8" height="30" rx="8" ry="8" fill="#4A90D9" stroke="#2E6DAB" stroke-width="1"/>
<text x="450.4" y="190.0" text-anchor="middle" font-family="Microsoft YaHei" font-size="12" fill="#FFFFFF">ASIC</text>
<rect x="420" y="212.0" width="53.599999999999994" height="30" rx="8" ry="8" fill="#4A90D9" stroke="#2E6DAB" stroke-width="1"/>
<text x="446.8" y="232.0" text-anchor="middle" font-family="Microsoft YaHei" font-size="12" fill="#FFFFFF">GPU</text>
<rect x="420" y="254.0" width="75.19999999999999" height="30" rx="8" ry="8" fill="#4A90D9" stroke="#2E6DAB" stroke-width="1"/>
<text x="457.6" y="274.0" text-anchor="middle" font-family="Microsoft YaHei" font-size="12" fill="#FFFFFF">AI推理芯片</text>
<rect x="420" y="296.0" width="53.599999999999994" height="30" rx="8" ry="8" fill="#4A90D9" stroke="#2E6DAB" stroke-width="1"/>
<text x="446.8" y="316.0" text-anchor="middle" font-family="Microsoft YaHei" font-size="12" fill="#FFFFFF">传感器</text>
<rect x="420" y="338.0" width="68.0" height="30" rx="8" ry="8" fill="#4A90D9" stroke="#2E6DAB" stroke-width="1"/>
<text x="454.0" y="358.0" text-anchor="middle" font-family="Microsoft YaHei" font-size="12" fill="#FFFFFF">光电子器件</text>
<rect x="420" y="380.0" width="60.8" height="30" rx="8" ry="8" fill="#4A90D9" stroke="#2E6DAB" stroke-width="1"/>
<text x="450.4" y="400.0" text-anchor="middle" font-family="Microsoft YaHei" font-size="12" fill="#FFFFFF">分立器件</text>
<rect x="420" y="422.0" width="53.599999999999994" height="30" rx="8" ry="8" fill="#4A90D9" stroke="#2E6DAB" stroke-width="1"/>
<text x="446.8" y="442.0" text-anchor="middle" font-family="Microsoft YaHei" font-size="12" fill="#FFFFFF">智能化</text>
<rect x="420" y="464.0" width="68.0" height="30" rx="8" ry="8" fill="#4A90D9" stroke="#2E6DAB" stroke-width="1"/>
<text x="454.0" y="484.0" text-anchor="middle" font-family="Microsoft YaHei" font-size="12" fill="#FFFFFF">汽车半导体</text>
<rect x="420" y="506.0" width="53.599999999999994" height="30" rx="8" ry="8" fill="#4A90D9" stroke="#2E6DAB" stroke-width="1"/>
<text x="446.8" y="526.0" text-anchor="middle" font-family="Microsoft YaHei" font-size="12" fill="#FFFFFF">电动车</text>
<rect x="420" y="548.0" width="53.599999999999994" height="30" rx="8" ry="8" fill="#4A90D9" stroke="#2E6DAB" stroke-width="1"/>
<text x="446.8" y="568.0" text-anchor="middle" font-family="Microsoft YaHei" font-size="12" fill="#FFFFFF">网联化</text>
<rect x="420" y="590.0" width="60.8" height="30" rx="8" ry="8" fill="#4A90D9" stroke="#2E6DAB" stroke-width="1"/>
<text x="450.4" y="610.0" text-anchor="middle" font-family="Microsoft YaHei" font-size="12" fill="#FFFFFF">集成电路</text>
<rect x="420" y="632.0" width="53.599999999999994" height="30" rx="8" ry="8" fill="#4A90D9" stroke="#2E6DAB" stroke-width="1"/>
<text x="446.8" y="652.0" text-anchor="middle" font-family="Microsoft YaHei" font-size="12" fill="#FFFFFF">光刻胶</text>
<rect x="420" y="674.0" width="53.599999999999994" height="30" rx="8" ry="8" fill="#4A90D9" stroke="#2E6DAB" stroke-width="1"/>
<text x="446.8" y="694.0" text-anchor="middle" font-family="Microsoft YaHei" font-size="12" fill="#FFFFFF">化学品</text>
<rect x="420" y="716.0" width="46.4" height="30" rx="8" ry="8" fill="#4A90D9" stroke="#2E6DAB" stroke-width="1"/>
<text x="443.2" y="736.0" text-anchor="middle" font-family="Microsoft YaHei" font-size="12" fill="#FFFFFF">基材</text>
<rect x="420" y="758.0" width="60.8" height="30" rx="8" ry="8" fill="#4A90D9" stroke="#2E6DAB" stroke-width="1"/>
<text x="450.4" y="778.0" text-anchor="middle" font-family="Microsoft YaHei" font-size="12" fill="#FFFFFF">封装材料</text>
<rect x="420" y="800.0" width="46.4" height="30" rx="8" ry="8" fill="#4A90D9" stroke="#2E6DAB" stroke-width="1"/>
<text x="443.2" y="820.0" text-anchor="middle" font-family="Microsoft YaHei" font-size="12" fill="#FFFFFF">气体</text>
<rect x="420" y="842.0" width="46.4" height="30" rx="8" ry="8" fill="#4A90D9" stroke="#2E6DAB" stroke-width="1"/>
<text x="443.2" y="862.0" text-anchor="middle" font-family="Microsoft YaHei" font-size="12" fill="#FFFFFF">硅片</text>
<rect x="420" y="884.0" width="46.4" height="30" rx="8" ry="8" fill="#4A90D9" stroke="#2E6DAB" stroke-width="1"/>
<text x="443.2" y="904.0" text-anchor="middle" font-family="Microsoft YaHei" font-size="12" fill="#FFFFFF">金属</text>
<rect x="420" y="926.0" width="46.4" height="30" rx="8" ry="8" fill="#4A90D9" stroke="#2E6DAB" stroke-width="1"/>
<text x="443.2" y="946.0" text-anchor="middle" font-family="Microsoft YaHei" font-size="12" fill="#FFFFFF">代工</text>
<rect x="420" y="968.0" width="60.8" height="30" rx="8" ry="8" fill="#4A90D9" stroke="#2E6DAB" stroke-width="1"/>
<text x="450.4" y="988.0" text-anchor="middle" font-family="Microsoft YaHei" font-size="12" fill="#FFFFFF">OSAT</text>
<rect x="420" y="1010.0" width="46.4" height="30" rx="8" ry="8" fill="#4A90D9" stroke="#2E6DAB" stroke-width="1"/>
<text x="443.2" y="1030.0" text-anchor="middle" font-family="Microsoft YaHei" font-size="12" fill="#FFFFFF">刻蚀</text>
<rect x="420" y="1052.0" width="82.4" height="30" rx="8" ry="8" fill="#4A90D9" stroke="#2E6DAB" stroke-width="1"/>
<text x="461.2" y="1072.0" text-anchor="middle" font-family="Microsoft YaHei" font-size="12" fill="#FFFFFF">半导体设计制造</text>
<rect x="420" y="1094.0" width="46.4" height="30" rx="8" ry="8" fill="#4A90D9" stroke="#2E6DAB" stroke-width="1"/>
<text x="443.2" y="1114.0" text-anchor="middle" font-family="Microsoft YaHei" font-size="12" fill="#FFFFFF">封测</text>
<rect x="420" y="1136.0" width="111.2" height="30" rx="8" ry="8" fill="#4A90D9" stroke="#2E6DAB" stroke-width="1"/>
<text x="475.6" y="1156.0" text-anchor="middle" font-family="Microsoft YaHei" font-size="12" fill="#FFFFFF">2.5D/3D先进封装</text>
<rect x="420" y="1178.0" width="68.0" height="30" rx="8" ry="8" fill="#4A90D9" stroke="#2E6DAB" stroke-width="1"/>
<text x="454.0" y="1198.0" text-anchor="middle" font-family="Microsoft YaHei" font-size="12" fill="#FFFFFF">EDA软件</text>
<rect x="420" y="1220.0" width="75.19999999999999" height="30" rx="8" ry="8" fill="#4A90D9" stroke="#2E6DAB" stroke-width="1"/>
<text x="457.6" y="1240.0" text-anchor="middle" font-family="Microsoft YaHei" font-size="12" fill="#FFFFFF">先进封装技术</text>
<rect x="420" y="1262.0" width="53.599999999999994" height="30" rx="8" ry="8" fill="#4A90D9" stroke="#2E6DAB" stroke-width="1"/>
<text x="446.8" y="1282.0" text-anchor="middle" font-family="Microsoft YaHei" font-size="12" fill="#FFFFFF">光刻机</text>
<rect x="420" y="1304.0" width="89.6" height="30" rx="8" ry="8" fill="#4A90D9" stroke="#2E6DAB" stroke-width="1"/>
<text x="464.8" y="1324.0" text-anchor="middle" font-family="Microsoft YaHei" font-size="12" fill="#FFFFFF">晶圆缺陷监测系统</text>
<rect x="420" y="1346.0" width="60.8" height="30" rx="8" ry="8" fill="#4A90D9" stroke="#2E6DAB" stroke-width="1"/>
<text x="450.4" y="1366.0" text-anchor="middle" font-family="Microsoft YaHei" font-size="12" fill="#FFFFFF">沉积设备</text>
<rect x="600" y="254.0" width="44.0" height="30" rx="8" ry="8" fill="#4A90D9" stroke="#2E6DAB" stroke-width="1"/>
<text x="622.0" y="274.0" text-anchor="middle" font-family="Microsoft YaHei" font-size="10" fill="#FFFFFF">芯片</text>
<rect x="600" y="1052.0" width="44.0" height="30" rx="8" ry="8" fill="#4A90D9" stroke="#2E6DAB" stroke-width="1"/>
<text x="622.0" y="1072.0" text-anchor="middle" font-family="Microsoft YaHei" font-size="10" fill="#FFFFFF">设计</text>
<rect x="600" y="1178.0" width="50.0" height="30" rx="8" ry="8" fill="#4A90D9" stroke="#2E6DAB" stroke-width="1"/>
<text x="625.0" y="1198.0" text-anchor="middle" font-family="Microsoft YaHei" font-size="10" fill="#FFFFFF">EDA</text>
</svg>