<svg xmlns="http://www.w3.org/2000/svg" width="1000" height="600" viewBox="0 0 1000 600">
<rect width="100%" height="100%" fill="#FFFFFF"/>
<text x="500.0" y="25" text-anchor="middle" font-family="Microsoft YaHei" font-size="18" font-weight="bold" fill="#1B5E8C">产业链多级结构图</text>
<path d="M118,300.0 C179.0,300.0 179.0,258.0 240,258.0" fill="none" stroke="#7CB8E4" stroke-width="2"/>
<path d="M118,300.0 C179.0,300.0 179.0,384.0 240,384.0" fill="none" stroke="#7CB8E4" stroke-width="2"/>
<path d="M284,258.0 C352.0,258.0 352.0,195.0 420,195.0" fill="none" stroke="#7CB8E4" stroke-width="2"/>
<path d="M284,258.0 C352.0,258.0 352.0,237.0 420,237.0" fill="none" stroke="#7CB8E4" stroke-width="2"/>
<path d="M284,258.0 C352.0,258.0 352.0,279.0 420,279.0" fill="none" stroke="#7CB8E4" stroke-width="2"/>
<path d="M284,258.0 C352.0,258.0 352.0,321.0 420,321.0" fill="none" stroke="#7CB8E4" stroke-width="2"/>
<path d="M284,384.0 C352.0,384.0 352.0,363.0 420,363.0" fill="none" stroke="#7CB8E4" stroke-width="2"/>
<path d="M284,384.0 C352.0,384.0 352.0,405.0 420,405.0" fill="none" stroke="#7CB8E4" stroke-width="2"/>
<rect x="60" y="285.0" width="89.6" height="30" rx="8" ry="8" fill="#1B5E8C" stroke="#2E6DAB" stroke-width="1"/>
<text x="104.8" y="305.0" text-anchor="middle" font-family="Microsoft YaHei" font-size="16" fill="#FFFFFF">半导体产业链</text>
<rect x="240" y="243.0" width="65.6" height="30" rx="8" ry="8" fill="#3B82C4" stroke="#2E6DAB" stroke-width="1"/>
<text x="272.8" y="263.0" text-anchor="middle" font-family="Microsoft YaHei" font-size="14" fill="#FFFFFF">晶圆制造</text>
<rect x="240" y="369.0" width="65.6" height="30" rx="8" ry="8" fill="#3B82C4" stroke="#2E6DAB" stroke-width="1"/>
<text x="272.8" y="389.0" text-anchor="middle" font-family="Microsoft YaHei" font-size="14" fill="#FFFFFF">计算芯片</text>
<rect x="420" y="180.0" width="46.4" height="30" rx="8" ry="8" fill="#4A90D9" stroke="#2E6DAB" stroke-width="1"/>
<text x="443.2" y="200.0" text-anchor="middle" font-family="Microsoft YaHei" font-size="12" fill="#FFFFFF">光刻</text>
<rect x="420" y="222.0" width="46.4" height="30" rx="8" ry="8" fill="#4A90D9" stroke="#2E6DAB" stroke-width="1"/>
<text x="443.2" y="242.0" text-anchor="middle" font-family="Microsoft YaHei" font-size="12" fill="#FFFFFF">刻蚀</text>
<rect x="420" y="264.0" width="46.4" height="30" rx="8" ry="8" fill="#4A90D9" stroke="#2E6DAB" stroke-width="1"/>
<text x="443.2" y="284.0" text-anchor="middle" font-family="Microsoft YaHei" font-size="12" fill="#FFFFFF">沉积</text>
<rect x="420" y="306.0" width="60.8" height="30" rx="8" ry="8" fill="#4A90D9" stroke="#2E6DAB" stroke-width="1"/>
<text x="450.4" y="326.0" text-anchor="middle" font-family="Microsoft YaHei" font-size="12" fill="#FFFFFF">离子注入</text>
<rect x="420" y="348.0" width="60.8" height="30" rx="8" ry="8" fill="#4A90D9" stroke="#2E6DAB" stroke-width="1"/>
<text x="450.4" y="368.0" text-anchor="middle" font-family="Microsoft YaHei" font-size="12" fill="#FFFFFF">ASIC</text>
<rect x="420" y="390.0" width="53.599999999999994" height="30" rx="8" ry="8" fill="#4A90D9" stroke="#2E6DAB" stroke-width="1"/>
<text x="446.8" y="410.0" text-anchor="middle" font-family="Microsoft YaHei" font-size="12" fill="#FFFFFF">GPU</text>
</svg>